<svg width="41" height="40" viewBox="0 0 41 40" fill="none" xmlns="http://www.w3.org/2000/svg">
<g id="call-center-operator-svgrepo-com 1">
<g id="Group">
<path id="Vector" d="M38.6309 34.6799V40H2.36914V34.6787C2.36914 32.1665 4.53501 29.0737 7.18087 27.817L13.0684 25.0198L17.1554 33.5367L19.248 27.8631C19.6606 27.9411 20.0697 28.0452 20.5 28.0452C20.9303 28.0452 21.3382 27.9411 21.752 27.8631L23.7382 33.2577L27.7448 24.9252L33.8227 27.8158C36.465 29.0725 38.6309 32.1653 38.6309 34.6799ZM7.71761 16.0336V12.1913C7.71761 11.5399 8.05691 10.9688 8.56882 10.6402C9.2557 4.6604 14.3417 0 20.5024 0C26.663 0 31.7502 4.6604 32.4383 10.6402C32.949 10.9688 33.2883 11.5399 33.2883 12.1913V16.0336C33.2883 17.0539 32.4619 17.8814 31.4405 17.8814C30.419 17.8814 29.5926 17.0539 29.5926 16.0336V15.2261C28.5925 20.2565 24.9098 24.9264 20.5036 24.9264C16.0973 24.9264 12.4147 20.2565 11.4145 15.2261V16.0336C11.4145 16.8611 10.8647 17.5539 10.114 17.7892C10.8494 20.292 12.4809 22.4543 14.7342 23.873C15.1504 23.7359 15.6753 23.7619 16.1848 24.0267C17.0029 24.4523 17.4203 25.2799 17.1105 25.871C16.802 26.4621 15.8893 26.5946 15.0664 26.1678C14.4658 25.8545 14.0852 25.3284 14.045 24.8366C11.4641 23.1861 9.63402 20.6597 8.87857 17.7455C8.19996 17.4735 7.71761 16.8115 7.71761 16.0336ZM9.82791 10.2087C9.88347 10.2122 9.93668 10.2134 9.98988 10.2335C10.1235 10.2831 10.2204 10.3789 10.2878 10.4912C10.6886 10.6615 11.0078 10.9724 11.204 11.3578C11.7491 6.24934 15.6977 3.54673 20.5 3.54673C25.3023 3.54673 29.251 6.24934 29.796 11.3578C30.0667 10.827 30.581 10.4475 31.1969 10.3683C30.3977 5.17468 25.9123 1.18106 20.5 1.18106C15.1433 1.18224 10.6933 5.09428 9.82791 10.2087Z" fill="url(#paint0_linear_74_2577)"/>
</g>
</g>
<defs>
<linearGradient id="paint0_linear_74_2577" x1="-2.05058" y1="1.13081e-05" x2="46.6392" y2="9.61278" gradientUnits="userSpaceOnUse">
<stop offset="0.0520833" stop-color="#F736C7"/>
<stop offset="0.28125" stop-color="#C539C4"/>
<stop offset="0.510417" stop-color="#903ABB"/>
<stop offset="0.75" stop-color="#5938AD"/>
<stop offset="1" stop-color="#003399"/>
</linearGradient>
</defs>
</svg>
